<svg width="16" height="16" viewBox="0 0 16 16" fill="none" xmlns="http://www.w3.org/2000/svg">
<path fill-rule="evenodd" clip-rule="evenodd" d="M4.8733 8.06024C4.80885 8.15495 4.69449 8.32168 4.6192 8.43073C4.39324 8.7579 3.93874 9.46532 3.71377 9.83995C3.08772 10.8825 2.70133 11.7095 2.57335 12.2809C2.52613 12.4916 2.52316 12.8478 2.56666 13.0821C2.70722 13.8395 3.18193 14.4816 3.86026 14.8319C4.46032 15.1418 5.13462 15.1968 5.77399 14.9879C6.60471 14.7164 7.23628 14.0074 7.42112 13.1386C7.46662 12.9248 7.47834 12.5634 7.44579 12.3772C7.32775 11.7016 6.77056 10.5674 5.86154 9.15245C5.57613 8.70818 5.01563 7.88698 4.99831 7.8877C4.99401 7.88788 4.93776 7.96552 4.8733 8.06024Z" fill="#2196F3"/>
<path fill-rule="evenodd" clip-rule="evenodd" d="M10.8733 8.06024C10.8089 8.15495 10.6945 8.32168 10.6192 8.43073C10.3932 8.7579 9.93874 9.46532 9.71377 9.83995C9.08772 10.8825 8.70133 11.7095 8.57335 12.2809C8.52613 12.4916 8.52316 12.8478 8.56666 13.0821C8.70722 13.8395 9.18193 14.4816 9.86026 14.8319C10.4603 15.1418 11.1346 15.1968 11.774 14.9879C12.6047 14.7164 13.2363 14.0074 13.4211 13.1386C13.4666 12.9248 13.4783 12.5634 13.4458 12.3772C13.3277 11.7016 12.7706 10.5674 11.8615 9.15245C11.5761 8.70818 11.0156 7.88698 10.9983 7.8877C10.994 7.88788 10.9378 7.96552 10.8733 8.06024Z" fill="#2196F3"/>
<path fill-rule="evenodd" clip-rule="evenodd" d="M7.8733 1.06024C7.80885 1.15495 7.69449 1.32168 7.61919 1.43073C7.39324 1.7579 6.93874 2.46532 6.71377 2.83995C6.08772 3.88249 5.70133 4.70951 5.57335 5.28087C5.52613 5.49163 5.52316 5.84781 5.56666 6.08213C5.70722 6.83946 6.18193 7.48159 6.86026 7.83191C7.46032 8.14184 8.13462 8.19679 8.77399 7.98787C9.60471 7.71643 10.2363 7.00737 10.4211 6.13863C10.4666 5.92476 10.4783 5.56341 10.4458 5.37721C10.3277 4.70162 9.77056 3.56743 8.86154 2.15245C8.57613 1.70818 8.01563 0.886977 7.99831 0.887696C7.99401 0.887883 7.93776 0.965524 7.8733 1.06024Z" fill="#2196F3"/>
</svg>
