<svg width="128" height="128" class="hidden">
  <symbol xmlns="http://www.w3.org/2000/svg" viewBox="0 0 128 128" id="logo-rounded">
    <path fill-rule="evenodd" clip-rule="evenodd" d="M0.0862663 5C0.0862663 2.23858 2.32333 0 5.0829 0H123.003C125.763 0 128 2.23858 128 5V123C128 124.473 127.363 125.798 126.35 126.713C126.316 126.745 126.28 126.776 126.243 126.807C125.371 127.551 124.239 128 123.003 128H5.0829C2.32333 128 0.0862663 125.761 0.0862663 123V96.2997L0.0535762 96.1471C-0.0304884 95.7545 -0.0126566 95.3701 0.0862663 95.017V5ZM5.0829 109.754V118L7.51756 113.127C7.01622 112.515 6.53637 111.886 6.07975 111.242C5.73525 110.756 5.40255 110.259 5.0829 109.754ZM9.96345 108.232C9.15769 107.087 8.43679 105.881 7.808 104.622L7.06501 103.135C6.72504 102.455 6.45369 101.742 6.25497 101.008L5.0829 96.6777V67H30.5657L9.96345 108.232ZM11.1864 116.965L8.17104 123H21.0477C20.3118 122.711 19.584 122.394 18.8658 122.051C16.8906 121.105 15.0136 119.967 13.2621 118.653L12.3027 117.933L11.7211 117.434C11.5413 117.28 11.3631 117.123 11.1864 116.965ZM45.3719 123H62.0445V108.747C58.4807 114.821 53.02 119.753 46.2798 122.628C45.9786 122.757 45.6759 122.881 45.3719 123ZM62.0445 95.0435C60.813 103.416 56.0209 110.99 48.8446 115.699C43.4713 119.224 37.036 120.916 30.6274 120.449C25.0226 119.982 19.7093 117.752 15.4482 114.078L14.5931 113.341C14.2182 113.018 13.8523 112.685 13.4957 112.343L36.1521 67H62.0445V95.0435ZM123.003 112.473V116L121.998 113.987C122.346 113.492 122.682 112.987 123.003 112.473ZM123.003 95C123.003 100.006 121.691 104.704 119.391 108.771L87.7175 45.3806L117.18 15.8985C120.831 20.6287 123.003 26.5605 123.003 33V95ZM113.783 12.226L85.362 40.6666L72.9387 15.8032C78.059 9.22846 86.0471 5 95.0222 5C102.24 5 108.82 7.73506 113.783 12.226ZM81.6378 44.3934L69.8392 20.7804C68.0466 24.473 67.0411 28.619 67.0411 33V58.9999L81.6378 44.3934ZM77.5614 5C74.9389 6.64104 72.5636 8.64075 70.504 10.9305L67.5407 5H77.5614ZM67.1377 15.3737L67.0411 15.1804V15.5274C67.0732 15.4761 67.1054 15.4249 67.1377 15.3737ZM90.4352 62L83.9932 49.1074L71.1093 62H90.4352ZM116.116 113.397L92.9335 67H67.0411V95C67.0411 110.464 79.5687 123 95.0222 123C103.439 123 110.987 119.282 116.116 113.397ZM120.915 123L118.502 118.172C116.695 120.005 114.676 121.628 112.483 123H120.915ZM8.39156 5L43.7353 40.6431L61.5448 5H8.39156ZM41.3768 45.3633L5.0829 8.76197V62H33.0641L41.3768 45.3633ZM45.0914 49.1094L57.8738 62H38.6505L45.0914 49.1094ZM62.0445 59.1073L47.4499 44.3892L62.0445 15.1804V59.1073ZM123.003 10.0709L120.738 12.3382C121.553 13.3537 122.31 14.4185 123.003 15.5274V10.0709ZM120.741 5.26361C120.839 5.16597 120.942 5.07811 121.051 5H112.483C114.209 6.08005 115.828 7.31547 117.32 8.68668L120.741 5.26361ZM77.5614 123C73.3064 120.337 69.7019 116.731 67.0411 112.473V123H77.5614Z"></path>
  </symbol>
</svg>