<svg width="16" height="16" viewBox="0 0 16 16" fill="none" xmlns="http://www.w3.org/2000/svg">
<path fill-rule="evenodd" clip-rule="evenodd" d="M13.3596 2.10251C8.73133 2.61627 7.24258 3.76245 6.99526 7.00267L6.8965 8.29611L7.55974 7.12961C7.92438 6.48808 8.61885 5.60138 9.10315 5.15917L9.98331 4.35524L9.20612 5.18489C8.35381 6.09503 7.41646 7.79251 7.21219 8.79577C7.07313 9.47961 6.71312 9.67977 6.71165 9.07391C6.71122 8.87438 6.51793 8.38426 6.28222 7.98499L5.85364 7.25904L6.30965 7.77757L6.76567 8.29611L6.61268 7.57016C6.20646 5.64328 5.13279 4.8746 2.84722 4.87419C1.45237 4.87377 1.41291 4.88808 1.55493 5.34045C2.05927 6.94708 2.74319 7.55211 4.55818 7.9966C6.34257 8.43362 6.49113 8.69828 6.65362 11.7257C6.72072 12.9766 6.84227 14 6.92351 14C7.00475 14 7.1263 12.9766 7.19341 11.7257C7.36075 8.60744 7.44494 8.47635 9.80416 7.66474C12.1828 6.84628 13.0836 6.19106 13.7948 4.76239C14.4614 3.42312 14.7218 1.95442 14.2843 2.00108C14.124 2.01809 13.7078 2.06372 13.3596 2.10251Z" fill="#32D2AC"/>
</svg>
