<svg width="20" height="20" viewBox="0 0 20 20" fill="none" xmlns="http://www.w3.org/2000/svg">
<path fill-rule="evenodd" clip-rule="evenodd" d="M9.433 16.2333H10.5663V18.5H9.433V16.2333ZM13.9667 10.0001C13.9667 12.1908 12.1908 13.9668 10 13.9668C7.80931 13.9668 6.03337 12.1908 6.03337 10.0001C6.03337 7.80939 7.80931 6.03345 10 6.03345C12.1908 6.03345 13.9667 7.80939 13.9667 10.0001ZM18.5 9.43322V10.5665H16.2333V9.43322L18.5 9.43322ZM10.5663 1.50004H9.433V3.76671H10.5663V1.50004ZM16.411 4.39049L15.6096 3.5891L14.0069 5.19188L14.8083 5.99326L16.411 4.39049ZM5.19157 14.0072L5.99296 14.8086L4.39019 16.4113L3.5888 15.61L5.19157 14.0072ZM15.6094 16.4116L16.4108 15.6102L14.8081 14.0074L14.0067 14.8088L15.6094 16.4116ZM5.99276 5.19211L5.19137 5.9935L3.58859 4.39072L4.38998 3.58933L5.99276 5.19211ZM3.76667 10.5665V9.43322L1.5 9.43322L1.5 10.5665H3.76667Z" fill="#F7B239"/>
</svg>
